<svg width="1330" height="737" fill="none" xmlns="http://www.w3.org/2000/svg"><circle cx="1019.9" cy="692.899" r="5.899" fill="#E6E6E6"/><circle cx="1019.9" cy="730.918" r="5.899" fill="#E6E6E6"/><circle cx="1171.97" cy="692.899" r="5.899" fill="#E6E6E6"/><circle cx="1171.97" cy="730.918" r="5.899" fill="#E6E6E6"/><circle cx="1324.05" cy="692.899" r="5.899" fill="#E6E6E6"/><circle cx="1324.05" cy="730.918" r="5.899" fill="#E6E6E6"/><circle cx="1095.94" cy="692.899" r="5.899" fill="#E6E6E6"/><circle cx="1095.94" cy="730.918" r="5.899" fill="#E6E6E6"/><circle cx="1248.01" cy="692.899" r="5.899" fill="#E6E6E6"/><circle cx="1248.01" cy="730.918" r="5.899" fill="#E6E6E6"/><circle cx="1057.92" cy="692.899" r="5.899" fill="#E6E6E6"/><circle cx="1057.92" cy="730.918" r="5.899" fill="#E6E6E6"/><circle cx="1209.99" cy="692.899" r="5.899" fill="#E6E6E6"/><circle cx="1209.99" cy="730.918" r="5.899" fill="#E6E6E6"/><circle cx="1133.95" cy="692.899" r="5.899" fill="#E6E6E6"/><circle cx="1133.95" cy="730.918" r="5.899" fill="#E6E6E6"/><circle cx="1286.03" cy="692.899" r="5.899" fill="#E6E6E6"/><circle cx="1286.03" cy="730.918" r="5.899" fill="#E6E6E6"/><circle cx="1284.9" cy="661.046" r="5.899" transform="rotate(-90 1284.9 661.046)" fill="#E6E6E6"/><circle cx="1322.92" cy="661.046" r="5.899" transform="rotate(-90 1322.92 661.046)" fill="#E6E6E6"/><circle cx="1284.9" cy="508.973" r="5.899" transform="rotate(-90 1284.9 508.973)" fill="#E6E6E6"/><circle cx="1322.92" cy="508.973" r="5.899" transform="rotate(-90 1322.92 508.973)" fill="#E6E6E6"/><circle cx="1284.9" cy="356.899" r="5.899" transform="rotate(-90 1284.9 356.899)" fill="#E6E6E6"/><circle cx="1322.92" cy="356.899" r="5.899" transform="rotate(-90 1322.92 356.899)" fill="#E6E6E6"/><circle cx="1284.9" cy="585.009" r="5.899" transform="rotate(-90 1284.9 585.009)" fill="#E6E6E6"/><circle cx="1322.92" cy="585.009" r="5.899" transform="rotate(-90 1322.92 585.009)" fill="#E6E6E6"/><circle cx="1284.9" cy="432.936" r="5.899" transform="rotate(-90 1284.9 432.936)" fill="#E6E6E6"/><circle cx="1322.92" cy="432.936" r="5.899" transform="rotate(-90 1322.92 432.936)" fill="#E6E6E6"/><circle cx="1284.9" cy="623.027" r="5.899" transform="rotate(-90 1284.9 623.027)" fill="#E6E6E6"/><circle cx="1322.92" cy="623.027" r="5.899" transform="rotate(-90 1322.92 623.027)" fill="#E6E6E6"/><circle cx="1284.9" cy="470.954" r="5.899" transform="rotate(-90 1284.9 470.954)" fill="#E6E6E6"/><circle cx="1322.92" cy="470.954" r="5.899" transform="rotate(-90 1322.92 470.954)" fill="#E6E6E6"/><circle cx="1284.9" cy="546.991" r="5.899" transform="rotate(-90 1284.9 546.991)" fill="#E6E6E6"/><circle cx="1322.92" cy="546.991" r="5.899" transform="rotate(-90 1322.92 546.991)" fill="#E6E6E6"/><circle cx="1284.9" cy="394.918" r="5.899" transform="rotate(-90 1284.9 394.918)" fill="#E6E6E6"/><circle cx="1322.92" cy="394.918" r="5.899" transform="rotate(-90 1322.92 394.918)" fill="#E6E6E6"/><circle cx="5.899" cy="6.046" r="5.899" fill="#E6E6E6"/><circle cx="5.899" cy="44.064" r="5.899" fill="#E6E6E6"/><circle cx="157.973" cy="6.046" r="5.899" fill="#E6E6E6"/><circle cx="157.973" cy="44.064" r="5.899" fill="#E6E6E6"/><circle cx="310.046" cy="6.046" r="5.899" fill="#E6E6E6"/><circle cx="310.046" cy="44.064" r="5.899" fill="#E6E6E6"/><circle cx="81.936" cy="6.046" r="5.899" fill="#E6E6E6"/><circle cx="81.936" cy="44.064" r="5.899" fill="#E6E6E6"/><circle cx="234.009" cy="6.046" r="5.899" fill="#E6E6E6"/><circle cx="234.009" cy="44.064" r="5.899" fill="#E6E6E6"/><circle cx="43.918" cy="6.046" r="5.899" fill="#E6E6E6"/><circle cx="43.918" cy="44.064" r="5.899" fill="#E6E6E6"/><circle cx="195.991" cy="6.046" r="5.899" fill="#E6E6E6"/><circle cx="195.991" cy="44.064" r="5.899" fill="#E6E6E6"/><circle cx="119.954" cy="6.046" r="5.899" fill="#E6E6E6"/><circle cx="119.954" cy="44.064" r="5.899" fill="#E6E6E6"/><circle cx="272.027" cy="6.046" r="5.899" fill="#E6E6E6"/><circle cx="272.027" cy="44.064" r="5.899" fill="#E6E6E6"/></svg>